<?xml version="1.0" encoding="UTF-8"?>
<svg id="Layer_1" data-name="Layer 1" xmlns="http://www.w3.org/2000/svg" viewBox="0 0 396.57 151.95">
  <defs>
    <style>
      .cls-1 {
        font-size: 132.27px;
      }

      .cls-1, .cls-2, .cls-3 {
        fill: #007bff;
      }

      .cls-1, .cls-3 {
        font-family: MicrosoftSansSerif, 'Microsoft Sans Serif';
      }

      .cls-4 {
        fill: #fff;
      }

      .cls-3 {
        font-size: 132.27px;
      }
    </style>
  </defs>
  <g>
    <g>
      <path class="cls-2" d="m152.99,114.89c-.31.56-.62,1.12-.95,1.67.41-.28.82-.56,1.23-.83-.09-.28-.19-.56-.28-.84Z"/>
      <path class="cls-2" d="m161.49,59.97c.3.3.6.61.9.91-.1-.62-.21-1.23-.32-1.82-.19.3-.39.61-.58.91Z"/>
      <path class="cls-2" d="m170.31,87.99c.1-.61.2-1.22.28-1.83-.29.3-.59.61-.88.91.2.3.4.61.6.91Z"/>
      <path class="cls-2" d="m163.41,62.67c-.29-.3-.59-.61-.88-.91.09.6.18,1.21.26,1.83.21-.3.42-.61.62-.91Z"/>
      <path class="cls-2" d="m155.54,109.86c-.27.57-.54,1.14-.82,1.71.39-.28.78-.57,1.17-.85-.11-.29-.23-.57-.34-.86Z"/>
      <path class="cls-2" d="m162.35,87.99c.1-.61.2-1.22.28-1.83-.29.3-.59.61-.88.91.2.3.4.61.6.91Z"/>
      <path class="cls-2" d="m162.66,70.8c.26.31.52.61.78.92-.02-.61-.05-1.23-.08-1.84-.23.31-.47.61-.7.92Z"/>
      <path class="cls-2" d="m160.17,51.06c.17.58.34,1.18.5,1.79.17-.3.34-.6.5-.9-.33-.3-.67-.6-1-.9Z"/>
      <path class="cls-2" d="m157.74,104.73c-.23.58-.46,1.16-.7,1.75.37-.29.74-.58,1.1-.87-.13-.29-.27-.58-.4-.88Z"/>
      <path class="cls-2" d="m161.07,94.21c-.15.6-.3,1.2-.46,1.8.33-.3.66-.6.98-.9-.17-.3-.35-.6-.52-.9Z"/>
      <path class="cls-2" d="m170.67,76.23c.24.31.48.61.72.92.02-.62.04-1.24.04-1.84-.25.31-.51.61-.76.92Z"/>
      <path class="cls-2" d="m165.69,104.73c-.23.58-.46,1.17-.7,1.75.37-.29.74-.58,1.1-.87-.13-.29-.27-.58-.4-.88Z"/>
      <path class="cls-2" d="m163.5,109.86c-.27.57-.54,1.14-.82,1.71.39-.28.78-.57,1.17-.85-.11-.29-.23-.57-.34-.86Z"/>
      <path class="cls-2" d="m161.5,120.79c.05-.18.11-.36.16-.55,2.13-1.02,4.24-2.05,6.32-3.08-.02.09-.04.19-.07.28,0,0,0,0,0,0,0,0,0,0,0,0-.01.06-.03.12-.04.18,8.19-8.71,13.68-24.72,13.68-43.04s-5.3-33.75-13.24-42.56c-.84,1-1.7,2.02-2.59,3.04-.17-.19-.33-.38-.5-.57.88-1.02,1.73-2.03,2.57-3.03-.56-.59-1.13-1.14-1.71-1.66-.64.79-1.29,1.58-1.96,2.37-.17-.19-.35-.37-.52-.56.65-.78,1.28-1.55,1.9-2.32-.62-.52-1.26-1.01-1.91-1.45-.39.49-.79.99-1.19,1.48-.18-.18-.36-.37-.55-.55.37-.46.73-.91,1.08-1.36-2.83-1.79-5.86-2.78-9.02-2.83h0s0,0-27.88,0c-.82,0-1.63.07-2.43.19,14.26,2.2,25.46,23.66,25.46,49.81s-11.19,47.61-25.45,49.81c.8.12,1.61.19,2.42.19h27.64c2.05,0,4.05-.4,5.97-1.15.05-.13.09-.27.14-.4,1.39-.64,2.77-1.29,4.14-1.93,1.32-.93,2.59-2.05,3.8-3.31-2.05,1.01-4.12,2.01-6.22,3.01Zm8.05-6.23s0,0,0,0c-.02.09-.04.19-.05.28-2.05,1.05-4.12,2.09-6.22,3.12.05-.18.09-.37.13-.55,2.09-1.04,4.15-2.08,6.19-3.13-.02.09-.04.19-.05.28,0,0,0,0,0,0Zm1.52-2.92h0c-.01.1-.03.19-.04.29-2.01,1.06-4.03,2.12-6.09,3.17.04-.19.07-.38.11-.56,2.04-1.05,4.06-2.11,6.06-3.18-.01.1-.03.19-.04.29h0Zm1.4-2.96h0c-.01.1-.02.19-.03.29-1.96,1.08-3.95,2.15-5.96,3.21.03-.19.06-.38.09-.57,2-1.07,3.98-2.14,5.93-3.22-.01.1-.02.19-.03.29h0Zm1.25-2.7c-1.92,1.09-3.86,2.17-5.82,3.25.02-.19.04-.39.06-.58,1.96-1.08,3.89-2.16,5.8-3.26-.01.2-.03.39-.04.59Zm1.17-3.32s0,0,0,0c0,.1,0,.2,0,.3-1.87,1.1-3.77,2.19-5.69,3.28.01-.19.03-.39.04-.58,1.91-1.09,3.8-2.19,5.67-3.29,0,.1,0,.2,0,.3,0,0,0,0,0,0Zm-4.52.56c0-.2.01-.39.02-.59,1.87-1.1,3.71-2.21,5.54-3.32,0,.1,0,.2,0,.3,0,0,0,0,0,0,0,0,0,0,0,0,0,.1,0,.2,0,.3-1.83,1.11-3.68,2.22-5.56,3.31Zm1.06-3.05c0-.2,0-.4,0-.6,1.83-1.11,3.63-2.23,5.4-3.35,0,.1.01.2.02.3,0,0,0,0,0,0,0,0,0,0,0,0,0,.1.01.2.02.3-1.79,1.12-3.6,2.23-5.43,3.34Zm.93-3.07c0-.2-.02-.4-.03-.6,1.78-1.12,3.54-2.24,5.27-3.37,0,.1.02.2.03.3h0s0,0,0,0c0,.1.02.2.03.3-1.74,1.13-3.51,2.25-5.3,3.37Zm.81-3.1c-.02-.2-.03-.4-.05-.6,1.74-1.13,3.45-2.26,5.14-3.39.01.1.03.2.04.3,0,0,0,0,0,0,0,0,0,0,0,0,.01.1.03.2.04.3-1.7,1.13-3.42,2.26-5.17,3.39Zm.69-3.12c-.02-.2-.05-.41-.08-.61,1.69-1.13,3.36-2.27,5.01-3.41.02.1.03.2.05.31,0,0,0,0,0,0,0,0,0,0,0,0,.02.1.03.2.05.31-1.66,1.14-3.33,2.27-5.04,3.41Zm.57-3.13c-.03-.2-.07-.41-.1-.61,1.65-1.14,3.28-2.28,4.88-3.42.02.1.04.2.06.31,0,0,0,0,0,0,0,0,0,0,0,0,.02.1.04.2.06.31-1.61,1.14-3.25,2.28-4.91,3.42Zm.45-3.15c-.04-.2-.08-.41-.12-.61,1.61-1.14,3.19-2.29,4.75-3.43.05.21.1.41.15.62-1.57,1.15-3.16,2.29-4.77,3.43Zm.33-3.16c-.05-.2-.1-.41-.15-.62,1.56-1.15,3.1-2.29,4.62-3.44.03.1.06.21.09.31h0s0,0,0,0c.03.1.06.21.09.31-1.52,1.15-3.07,2.29-4.64,3.44Zm.21-3.16c-.06-.21-.11-.41-.17-.62,1.52-1.15,3.01-2.3,4.49-3.45.03.1.07.21.1.31h0s0,0,0,0c.03.1.07.21.1.31-1.48,1.15-2.98,2.3-4.51,3.44Zm4.47-6.61c-1.44,1.15-2.9,2.3-4.38,3.45-.06-.21-.13-.41-.19-.62,1.48-1.15,2.93-2.3,4.36-3.45.04.1.07.21.11.31,0,0,0,0,0,0,0,0,0,0,0,0,.04.1.07.21.11.31Zm-.16-3.16c-1.39,1.15-2.81,2.29-4.25,3.44-.07-.21-.14-.41-.22-.62,1.43-1.15,2.84-2.3,4.22-3.44.08.21.16.41.24.62Zm-.41-3.47s0,0,0,0c.04.1.09.2.13.31-1.35,1.14-2.72,2.29-4.12,3.44-.08-.21-.16-.41-.24-.62,1.39-1.15,2.75-2.29,4.09-3.43.04.1.09.2.13.31,0,0,0,0,0,0Zm-.41-3.15s0,0,0,0c.05.1.1.2.14.31-1.31,1.14-2.63,2.28-3.99,3.43-.09-.2-.18-.41-.26-.61,1.34-1.14,2.66-2.29,3.96-3.42.05.1.1.2.15.31,0,0,0,0,0,0Zm-.38-2.83c-1.26,1.14-2.55,2.27-3.86,3.41-.1-.2-.19-.41-.29-.61,1.3-1.14,2.58-2.28,3.83-3.41.11.2.21.41.31.61Zm-.81-3.43s0,0,0,0c.06.1.11.2.17.3-1.22,1.13-2.46,2.26-3.72,3.4-.1-.2-.21-.41-.31-.61,1.26-1.13,2.49-2.27,3.7-3.39.06.1.11.2.17.3,0,0,0,0,0,0Zm-.78-3.1s0,0,0,0c.06.1.12.2.18.3-1.17,1.12-2.37,2.25-3.59,3.38-.11-.2-.22-.4-.33-.61,1.21-1.13,2.4-2.25,3.57-3.37.06.1.12.2.18.3,0,0,0,0,0,0Zm-.9-3.08s0,0,0,0c.06.1.13.2.19.3-1.13,1.11-2.28,2.23-3.46,3.35-.12-.2-.24-.4-.36-.6,1.17-1.12,2.31-2.24,3.44-3.35.06.1.13.2.19.3,0,0,0,0,0,0Zm-1.02-3.05s0,0,0,0c.07.1.14.2.2.3-1.09,1.1-2.2,2.21-3.33,3.33-.13-.2-.25-.4-.38-.6,1.13-1.11,2.23-2.22,3.31-3.32.07.1.14.2.2.3,0,0,0,0,0,0Zm-1.14-3.03s0,0,0,0c.07.1.14.2.22.29-1.04,1.09-2.11,2.19-3.2,3.3-.13-.2-.27-.4-.41-.59,1.08-1.1,2.14-2.2,3.17-3.29.07.1.14.2.22.29,0,0,0,0,0,0Zm-1.26-3s0,0,0,0c.08.1.15.19.23.29-1,1.08-2.02,2.17-3.07,3.26-.14-.2-.29-.39-.43-.59,1.04-1.09,2.05-2.18,3.04-3.26.08.1.15.19.23.29,0,0,0,0,0,0Zm-1.14-2.67c-.96,1.07-1.93,2.14-2.94,3.23-.15-.19-.3-.39-.45-.58.99-1.08,1.96-2.15,2.91-3.22.16.19.32.38.48.57Zm-1.99-3.49c.08.09.17.19.25.28h0s0,0,0,0c.08.09.17.19.25.28-.91,1.05-1.85,2.12-2.81,3.18-.16-.19-.32-.38-.48-.57.95-1.07,1.88-2.13,2.78-3.18Zm-11.34-5.17s-.01-.02-.01-.02c0,0,0,.01.01.02Zm-7.95,0s0-.01-.01-.02c0,0,0,0,.01.02Zm-13.96-4.49c2.62,1.59,5.19,3.2,7.69,4.84,0,.16.02.32.02.48-2.49-1.64-5.04-3.26-7.66-4.86-.02-.16-.04-.31-.06-.47Zm1.92,2.76c2.55,1.62,5.05,3.26,7.48,4.93,0,.08,0,.16,0,.24,0,0,0,0,0,0,0,0,0,0,0,0,0,.08,0,.16,0,.24-2.42-1.67-4.9-3.32-7.45-4.94-.01-.16-.03-.32-.04-.47Zm1.8,2.81c2.48,1.65,4.91,3.31,7.27,5,0,.16-.01.33-.02.5-2.35-1.69-4.76-3.37-7.24-5.02,0-.16-.01-.32-.02-.48Zm1.68,2.86c2.41,1.67,4.77,3.36,7.06,5.08-.01.17-.02.33-.04.5-2.28-1.72-4.62-3.41-7.03-5.09,0-.16,0-.33,0-.49Zm1.56,2.9c2.34,1.7,4.63,3.41,6.85,5.14-.02.17-.04.34-.06.51-2.21-1.74-4.48-3.45-6.82-5.15,0-.17.02-.33.02-.5Zm1.44,2.94c2.27,1.72,4.49,3.45,6.64,5.2-.03.17-.05.34-.08.51-2.14-1.75-4.34-3.49-6.61-5.21.01-.17.03-.34.04-.5Zm1.32,2.98c2.2,1.74,4.35,3.49,6.43,5.26-.03.17-.07.35-.1.52-2.07-1.77-4.2-3.53-6.4-5.27.02-.17.04-.34.06-.51Zm1.2,3.01c2.13,1.76,4.21,3.53,6.22,5.31-.02.09-.04.17-.06.26,0,0,0,0,0,0,0,0,0,0,0,0-.02.09-.04.17-.06.26-2-1.79-4.06-3.56-6.19-5.32.03-.17.06-.34.08-.51Zm.98,3.56c.04-.17.07-.35.1-.52,2.06,1.77,4.07,3.56,6.01,5.35-.02.09-.05.18-.07.26,0,0,0,0,0,0,0,0,0,0,0,0-.02.09-.05.18-.07.26-1.93-1.8-3.92-3.59-5.98-5.36Zm8.58,30.29s0,0,0,0c-.05.09-.1.18-.15.27-1.37-1.84-2.8-3.67-4.3-5.51.09-.18.18-.36.27-.54,1.5,1.84,2.95,3.68,4.33,5.51-.05.09-.1.18-.15.27,0,0,0,0,0,0Zm-.39,3.43c-1.3-1.83-2.66-3.67-4.09-5.51.1-.18.19-.36.29-.54,1.43,1.84,2.81,3.67,4.12,5.51-.11.18-.22.36-.32.54Zm-.36,3.15c-1.23-1.83-2.52-3.66-3.88-5.49.1-.18.21-.36.31-.54,1.36,1.84,2.67,3.67,3.91,5.5-.11.18-.23.36-.35.54Zm-.48,3.14c-1.16-1.82-2.38-3.65-3.67-5.48.11-.18.22-.36.33-.54,1.29,1.83,2.53,3.66,3.7,5.48-.12.18-.24.36-.37.53Zm-.6,3.13c-1.09-1.81-2.24-3.63-3.46-5.45.12-.18.23-.36.35-.53,1.22,1.83,2.39,3.65,3.49,5.46-.13.18-.26.35-.39.53Zm-.72,3.11c-1.02-1.8-2.1-3.61-3.25-5.43.12-.18.25-.35.37-.53,1.16,1.82,2.25,3.63,3.28,5.43-.13.18-.27.35-.41.53Zm-.63,2.83s0,0,0,0c-.07.09-.14.17-.21.26-.95-1.79-1.96-3.59-3.04-5.39.13-.18.26-.35.39-.53,1.08,1.81,2.11,3.61,3.07,5.4-.07.09-.14.17-.21.26,0,0,0,0,0,0Zm-1.17,3.33c-.88-1.77-1.82-3.56-2.83-5.35.14-.18.28-.35.41-.53,1.02,1.8,1.97,3.59,2.86,5.36-.15.17-.3.35-.45.52Zm4.44-25.29h0c-.05.09-.09.18-.14.27-1.44-1.84-2.94-3.68-4.51-5.51.08-.18.17-.36.25-.54,1.57,1.84,3.09,3.67,4.54,5.51-.05.09-.09.18-.14.27h0Zm-.02-3.17s0,0,0,0c-.04.09-.09.18-.13.27-1.51-1.84-3.08-3.67-4.72-5.51.08-.18.15-.36.23-.54,1.64,1.83,3.23,3.67,4.75,5.51-.04.09-.09.18-.13.27,0,0,0,0,0,0Zm-.26-2.9c-1.58-1.84-3.22-3.67-4.93-5.5.07-.18.14-.36.21-.54,1.71,1.83,3.37,3.66,4.96,5.49-.08.18-.16.36-.24.54Zm-.14-3.43s0,0,0,0c-.04.09-.07.18-.11.27-1.65-1.83-3.36-3.66-5.14-5.48.06-.18.12-.36.19-.53,1.78,1.82,3.51,3.65,5.17,5.48-.04.09-.07.18-.11.27,0,0,0,0,0,0Zm-.48-2.88c-1.72-1.83-3.5-3.65-5.35-5.46.06-.18.11-.35.17-.53,1.85,1.81,3.65,3.63,5.38,5.45-.07.18-.13.36-.2.53Zm-.49-3.14c-1.79-1.82-3.64-3.63-5.56-5.43.05-.18.1-.35.15-.53,1.92,1.8,3.79,3.61,5.59,5.43-.06.18-.12.35-.18.53Zm-.53-3.39s0,0,0,0c-.03.09-.05.18-.08.27-1.86-1.81-3.78-3.61-5.77-5.4.04-.17.08-.35.12-.52,1.99,1.79,3.93,3.59,5.8,5.39-.03.09-.05.18-.08.26,0,0,0,0,0,0Zm-5.8,41.41c.95,1.79,1.83,3.56,2.65,5.32-.08.09-.16.17-.23.26,0,0,0,0,0,0,0,0,0,0,0,0-.08.09-.16.17-.23.26-.81-1.76-1.68-3.53-2.62-5.31.14-.17.29-.35.43-.52Zm-.97,3.07c.88,1.77,1.69,3.53,2.44,5.27-.16.17-.33.34-.49.51-.74-1.74-1.54-3.49-2.41-5.26.15-.17.3-.35.45-.52Zm-1.09,3.04c.81,1.75,1.55,3.49,2.23,5.21-.17.17-.34.34-.51.5-.67-1.72-1.4-3.45-2.2-5.2.16-.17.32-.34.47-.51Zm-1.21,3.01c.74,1.74,1.41,3.45,2.02,5.15-.18.17-.35.33-.53.5-.6-1.7-1.26-3.41-1.99-5.14.17-.17.33-.34.49-.51Zm-1.33,2.97c.67,1.72,1.27,3.41,1.81,5.09-.18.16-.37.33-.55.49-.53-1.67-1.12-3.36-1.78-5.08.17-.17.34-.33.51-.5Zm-1.45,2.94c.6,1.69,1.13,3.37,1.6,5.02-.09.08-.19.16-.28.24,0,0,0,0,0,0,0,0,0,0,0,0-.1.08-.19.16-.29.24-.46-1.65-.98-3.31-1.57-5,.18-.16.36-.33.53-.5Zm-2.7,11.08c-.32-1.59-.7-3.2-1.15-4.84.19-.16.38-.32.58-.48.46,1.64.85,3.26,1.18,4.86-.2.16-.41.31-.61.47Zm1.92-2.76c-.39-1.62-.84-3.26-1.36-4.93.19-.16.37-.33.56-.49.53,1.67.99,3.32,1.39,4.94-.2.16-.39.32-.59.47Zm1.41,1.63c19.94-28.42,20.7-64.93,2.27-93.95.15,0,.29,0,.44,0,18.43,29.02,17.67,65.53-2.27,93.95-.15,0-.29,0-.44,0Zm6.6-4.81c.08.28.16.55.24.82.15.54.3,1.07.44,1.6-.83.53-1.67,1.06-2.52,1.58-.56.35-1.12.69-1.69,1.04.02-.16.04-.31.06-.47.72-.44,1.44-.89,2.16-1.34.43-.27.86-.54,1.29-.81-.07-.27-.14-.54-.22-.82-.15-.53-.3-1.07-.46-1.61.81-.54,1.62-1.08,2.42-1.62.32-.56.64-1.11.95-1.67-.19-.55-.38-1.1-.58-1.65.78-.55,1.54-1.1,2.31-1.66.28-.57.56-1.14.82-1.71-.23-.56-.46-1.12-.69-1.69.74-.56,1.47-1.13,2.19-1.7.24-.58.48-1.16.7-1.75-.26-.57-.54-1.14-.81-1.72.7-.57,1.39-1.15,2.07-1.73.35-.3.7-.59,1.04-.89-.15-.3-.31-.59-.46-.89-.3-.58-.61-1.16-.93-1.75.66-.58,1.31-1.17,1.95-1.75.16-.6.32-1.2.46-1.8-.34-.59-.69-1.18-1.05-1.77.62-.59,1.23-1.18,1.84-1.77.31-.3.62-.61.92-.91-.19-.3-.39-.61-.58-.91-.38-.59-.77-1.19-1.17-1.78.58-.59,1.15-1.19,1.72-1.78.29-.3.58-.61.86-.91-.21-.31-.43-.61-.64-.92-.42-.6-.85-1.2-1.28-1.79.54-.6,1.07-1.2,1.6-1.79.27-.31.54-.61.8-.92-.23-.31-.47-.61-.7-.92-.01.33-.03.66-.05.98.02-.33.04-.66.05-.98-.46-.6-.93-1.2-1.4-1.8.5-.6,1-1.2,1.48-1.8.25-.31.5-.61.74-.92-.25-.31-.51-.61-.76-.92-.5-.6-1.01-1.2-1.52-1.8.46-.6.92-1.2,1.37-1.8.23-.31.46-.61.68-.92-.27-.31-.55-.61-.82-.92-.54-.6-1.08-1.2-1.64-1.79.42-.6.84-1.19,1.25-1.79-.08-.61-.17-1.22-.26-1.83-.58-.6-1.16-1.19-1.75-1.78.38-.59.76-1.18,1.13-1.78.19-.3.38-.6.56-.91-.31-.3-.63-.6-.94-.91-.62-.59-1.24-1.18-1.87-1.77.34-.59.68-1.17,1.01-1.76-.16-.6-.33-1.2-.5-1.79-.66-.58-1.32-1.16-1.99-1.75.31-.58.6-1.16.9-1.73.15-.3.3-.59.44-.88-.35-.29-.71-.59-1.06-.88-.7-.57-1.4-1.15-2.11-1.72.27-.57.53-1.14.78-1.71.13-.29.26-.58.38-.87-.37-.29-.75-.58-1.12-.87-.73-.56-1.48-1.13-2.22-1.69.23-.56.45-1.12.66-1.67-.22-.44-.44-.88-.66-1.32.21.41.43.85.66,1.32.11-.28.22-.57.32-.85-.39-.28-.79-.57-1.18-.85-.77-.55-1.55-1.1-2.34-1.65.19-.55.37-1.09.55-1.63-.13-.23-.27-.46-.4-.7-.11-.19-.23-.39-.35-.58.11.18.22.37.35.58.13.21.26.44.4.7.09-.28.18-.55.26-.83-.41-.28-.83-.55-1.24-.83-.69-.46-1.39-.91-2.08-1.37-.01-.16-.02-.32-.03-.48.55.35,1.09.71,1.64,1.06,0-.02-.02-.03-.03-.04,0,.01.02.03.03.04h0s0,0,0,0c.82.54,1.63,1.07,2.44,1.61-.17.54-.34,1.08-.53,1.63-.09.28-.19.56-.28.84.4.28.8.56,1.2.84-.23-.43-.46-.86-.7-1.28.22.39.45.82.7,1.28.78.55,1.55,1.1,2.32,1.66-.21.55-.42,1.11-.64,1.67-.11.29-.23.57-.34.86.38.29.76.57,1.14.86,0,0,0,0,0,0-.2-.44-.41-.89-.61-1.33.2.42.4.87.61,1.33,0,0,0,0,0,0,.74.56,1.48,1.13,2.2,1.69-.25.57-.5,1.13-.76,1.7,0,0,0,0,0,0h0c.03.08.06.16.09.23-.03-.08-.06-.16-.09-.23-.13.29-.27.58-.4.87.36.29.72.59,1.08.88.7.57,1.4,1.15,2.09,1.72-.29.58-.58,1.15-.88,1.73-.15.3-.31.59-.46.89.34.3.68.59,1.02.89.66.58,1.32,1.17,1.97,1.75-.32.58-.66,1.17-.99,1.75-.17.3-.35.6-.52.9.32.3.64.6.96.9.62.59,1.24,1.18,1.85,1.77-.36.59-.73,1.18-1.11,1.77.11.61.22,1.21.32,1.82.58.59,1.16,1.19,1.73,1.79-.4.59-.81,1.19-1.23,1.79-.21.3-.43.61-.64.92.28.31.56.61.84.92.55.6,1.08,1.2,1.62,1.79-.44.6-.89,1.2-1.35,1.79.03.6.06,1.22.08,1.84.51.6,1.01,1.2,1.5,1.8-.48.6-.97,1.2-1.46,1.8-.25.31-.51.61-.76.92.24.31.48.61.72.92.47.6.93,1.2,1.38,1.8-.52.6-1.05,1.2-1.58,1.79h0c-.03.38-.06.76-.1,1.14.03-.38.07-.76.1-1.14-.27.31-.55.61-.82.92.22.31.44.61.66.92.43.6.85,1.2,1.26,1.79-.56.6-1.13,1.19-1.7,1.79-.09.61-.18,1.22-.28,1.83.39.59.77,1.19,1.15,1.78-.6.59-1.2,1.18-1.82,1.77-.31.3-.63.6-.94.91.18.3.36.6.54.91.35.59.69,1.18,1.03,1.76-.64.59-1.28,1.17-1.93,1.75h0c-.06.22-.12.44-.19.66.06-.22.13-.44.19-.66-.33.3-.67.6-1,.9.16.3.32.6.48.89.31.58.61,1.16.91,1.74-.68.58-1.36,1.15-2.05,1.73-.35.29-.71.59-1.06.88.14.29.28.59.42.88.27.57.53,1.14.79,1.71-.72.57-1.44,1.14-2.17,1.7-.37.29-.75.58-1.12.87.12.29.24.58.36.87.23.56.46,1.12.67,1.68-.76.56-1.52,1.11-2.29,1.67-.39.28-.79.57-1.19.85.1.28.2.56.3.85.19.55.38,1.1.56,1.64-.79.54-1.6,1.09-2.4,1.63-.41.28-.83.55-1.25.83Zm1.8,4.81c-.15,0-.29,0-.44,0,19.94-28.42,20.7-64.93,2.27-93.95.15,0,.29,0,.44,0,18.43,29.02,17.67,65.53-2.27,93.95Zm7.4-5.64c-.41.28-.83.55-1.25.83.08.28.16.55.24.82.15.54.3,1.07.44,1.6-.83.53-1.67,1.06-2.52,1.58-.56.35-1.12.69-1.69,1.04.02-.16.04-.31.06-.47.72-.44,1.44-.89,2.16-1.34.43-.27.86-.54,1.29-.81-.07-.27-.14-.54-.22-.82-.15-.53-.3-1.07-.46-1.61.81-.54,1.62-1.08,2.42-1.62.41-.28.82-.56,1.23-.83-.09-.28-.19-.56-.28-.84-.19-.55-.38-1.1-.58-1.65.78-.55,1.54-1.1,2.31-1.66.28-.57.56-1.14.82-1.71-.23-.56-.46-1.12-.69-1.69.74-.56,1.47-1.13,2.19-1.7.24-.59.48-1.17.7-1.75h0s0,0,0,0c-.26-.57-.54-1.14-.81-1.72.7-.57,1.39-1.15,2.07-1.73.35-.3.7-.59,1.04-.89-.15-.3-.31-.59-.46-.89-.3-.58-.61-1.16-.93-1.75.66-.58,1.31-1.17,1.95-1.75.16-.6.32-1.2.46-1.8-.34-.59-.69-1.18-1.05-1.77.62-.59,1.23-1.18,1.84-1.77.31-.3.62-.61.92-.91-.19-.3-.39-.61-.58-.91-.38-.59-.77-1.19-1.17-1.78.58-.59,1.15-1.19,1.72-1.78.29-.3.58-.61.86-.91-.21-.31-.43-.61-.64-.92-.42-.6-.85-1.2-1.28-1.79.54-.6,1.07-1.2,1.6-1.79.02-.28.04-.57.05-.85.02-.33.04-.66.05-.98-.46-.6-.93-1.2-1.4-1.8.5-.6,1-1.2,1.48-1.8.25-.31.5-.61.74-.92-.25-.31-.51-.61-.76-.92-.5-.6-1.01-1.2-1.52-1.8.46-.6.92-1.2,1.37-1.8.23-.31.46-.61.68-.92-.27-.31-.55-.61-.82-.92-.54-.6-1.08-1.2-1.64-1.79.42-.6.84-1.19,1.25-1.79-.08-.61-.17-1.22-.26-1.83-.58-.6-1.16-1.19-1.75-1.78.38-.59.76-1.18,1.13-1.78.19-.3.38-.6.56-.91-.31-.3-.63-.6-.94-.91-.62-.59-1.24-1.18-1.87-1.77.34-.59.68-1.17,1.01-1.76.17-.3.34-.6.5-.9-.33-.3-.67-.6-1-.9-.66-.58-1.32-1.16-1.99-1.75.31-.58.6-1.16.9-1.73.15-.3.3-.59.44-.88-.35-.29-.71-.59-1.06-.88-.7-.57-1.4-1.15-2.11-1.72.27-.57.53-1.14.78-1.71.13-.29.26-.58.38-.87-.37-.29-.75-.58-1.12-.87-.73-.56-1.48-1.13-2.22-1.69.23-.56.45-1.12.66-1.67-.22-.44-.44-.88-.66-1.32.21.41.43.85.66,1.32.11-.28.22-.57.32-.85-.39-.28-.79-.57-1.18-.85-.77-.55-1.55-1.1-2.34-1.65.19-.55.37-1.09.55-1.63-.13-.23-.27-.46-.4-.7-.11-.19-.23-.39-.35-.58.11.18.22.37.35.58.13.21.26.44.4.7.09-.28.18-.55.26-.83-.41-.28-.83-.55-1.24-.83-.69-.46-1.39-.91-2.08-1.37-.01-.16-.02-.32-.03-.48.55.35,1.09.71,1.64,1.06,0-.02-.02-.03-.03-.04,0,.01.02.03.03.04h0s0,0,0,0c.82.54,1.63,1.07,2.44,1.61-.17.54-.34,1.08-.53,1.63-.09.28-.19.56-.28.84.4.28.8.56,1.2.84-.23-.43-.46-.86-.7-1.28.22.39.45.82.7,1.28.78.55,1.55,1.1,2.32,1.66-.21.55-.42,1.11-.64,1.67-.11.29-.23.57-.34.86.38.29.76.57,1.14.86-.2-.45-.41-.89-.62-1.33.2.42.41.87.62,1.33.74.56,1.48,1.13,2.2,1.69-.25.57-.5,1.13-.76,1.7,0,0,0,0,0,0h0c.03.08.06.16.09.23-.03-.08-.06-.16-.09-.23-.13.29-.27.58-.4.87.36.29.72.59,1.08.88.7.57,1.4,1.15,2.09,1.72-.29.58-.58,1.15-.88,1.73-.15.3-.31.59-.46.89.34.3.68.59,1.02.89.66.58,1.32,1.17,1.97,1.75-.32.58-.66,1.17-.99,1.75-.17.3-.35.6-.52.9.32.3.64.6.96.9.62.59,1.24,1.18,1.85,1.77-.36.59-.73,1.18-1.11,1.77.11.61.22,1.21.32,1.82.58.59,1.16,1.19,1.73,1.79-.4.59-.81,1.19-1.23,1.79-.21.3-.43.61-.64.92.28.31.56.61.84.92.55.6,1.08,1.2,1.62,1.79-.44.6-.89,1.2-1.35,1.79.03.6.06,1.22.08,1.84.51.6,1.01,1.2,1.5,1.8-.48.6-.97,1.2-1.46,1.8,0,.61-.02,1.23-.04,1.84.47.6.93,1.2,1.38,1.8-.52.6-1.05,1.2-1.58,1.79h0c-.03.38-.06.76-.1,1.14.03-.38.07-.76.1-1.14-.27.31-.55.61-.82.92.22.31.44.61.66.92.43.6.85,1.2,1.26,1.79-.56.6-1.13,1.19-1.7,1.79-.09.61-.18,1.22-.28,1.83.39.59.77,1.19,1.15,1.78-.6.59-1.2,1.18-1.82,1.77-.31.3-.63.6-.94.91.18.3.36.6.54.91.35.59.69,1.18,1.03,1.76-.64.59-1.28,1.17-1.93,1.75h0c-.06.22-.12.44-.19.66.06-.22.13-.44.19-.66-.33.3-.67.6-1,.9.16.3.32.6.48.89.31.58.61,1.16.91,1.74-.68.58-1.36,1.15-2.05,1.73-.35.29-.71.59-1.06.88.14.29.28.59.42.88.27.57.53,1.14.79,1.71-.72.57-1.44,1.14-2.17,1.7-.37.29-.75.58-1.12.87.12.29.24.58.36.87.23.56.46,1.12.67,1.68-.76.56-1.52,1.11-2.29,1.67-.39.28-.79.57-1.19.85.1.28.2.56.3.85.19.55.38,1.1.56,1.64-.79.54-1.6,1.09-2.4,1.63Z"/>
      <path class="cls-2" d="m170.61,70.8c.26.31.52.61.78.92-.02-.61-.05-1.23-.08-1.84-.23.31-.47.61-.7.92Z"/>
      <path class="cls-2" d="m169.02,94.21c-.15.6-.3,1.2-.46,1.8.33-.3.66-.6.98-.9-.17-.3-.35-.6-.52-.9Z"/>
      <path class="cls-2" d="m171.36,62.67c-.29-.3-.59-.61-.88-.91.09.6.18,1.21.26,1.83.21-.3.42-.61.62-.91Z"/>
      <path class="cls-2" d="m169.44,59.97c.3.3.6.61.9.91-.1-.62-.21-1.23-.32-1.82-.19.3-.39.61-.58.91Z"/>
      <path class="cls-2" d="m172.05,78.95c-.23-.31-.47-.61-.7-.92-.01.33-.03.66-.05.98-.02.28-.03.57-.05.85.27-.31.54-.61.8-.92Z"/>
    </g>
    <ellipse class="cls-2" cx="123.86" cy="74.35" rx="22.3" ry="47.05"/>
    <g>
      <ellipse class="cls-4" cx="124.1" cy="74.58" rx="10.91" ry="19.09"/>
      <ellipse class="cls-2" cx="135.25" cy="74.35" rx="7.52" ry="10.68"/>
    </g>
  </g>
  <text class="cls-3" transform="translate(0 117.98) scale(.96 1)"><tspan x="0" y="0">R</tspan></text>
  <text class="cls-1" transform="translate(190.24 113.48) scale(.9 1)"><tspan x="0" y="0">uter</tspan></text>
</svg>